<?xml version="1.0" encoding="UTF-8"?><svg id="_图层_1" xmlns="http://www.w3.org/2000/svg" viewBox="0 0 956.66 256"><defs><style>.cls-1{fill:#a4c7ff;}.cls-1,.cls-2,.cls-3,.cls-4{stroke-width:0px;}.cls-2{fill:#2366d1;}.cls-3{fill:#333;}.cls-4{fill:#609dff;}</style></defs><path class="cls-2" d="M110.85,128l110.85,64-110.85,64L0,192l110.85-64Z"/><path class="cls-4" d="M110.85,64l110.85,64-110.85,64L0,128l110.85-64Z"/><path class="cls-1" d="M110.85,0l110.85,64-110.85,64L0,64,110.85,0Z"/><path class="cls-3" d="M305.04,196.59c-1.56,0-2.85-.51-3.87-1.53-1.02-1.02-1.53-2.31-1.53-3.87V61.41c0-1.56.51-2.85,1.53-3.87s2.31-1.53,3.87-1.53,2.85.51,3.87,1.53c1.02,1.02,1.53,2.31,1.53,3.87v59.4h90.9v-59.4c0-1.56.51-2.85,1.53-3.87,1.02-1.02,2.31-1.53,3.87-1.53,1.44,0,2.7.51,3.78,1.53,1.08,1.02,1.62,2.31,1.62,3.87v129.78c0,1.56-.54,2.85-1.62,3.87-1.08,1.02-2.34,1.53-3.78,1.53-1.56,0-2.85-.51-3.87-1.53-1.02-1.02-1.53-2.31-1.53-3.87v-60.66h-90.9v60.66c0,1.56-.51,2.85-1.53,3.87-1.02,1.02-2.31,1.53-3.87,1.53Z"/><path class="cls-3" d="M490.26,198.39c-7.56,0-14.49-1.05-20.79-3.15-6.3-2.1-11.73-5.1-16.29-9-4.56-3.9-8.16-8.49-10.8-13.77-.72-1.44-.75-2.82-.09-4.14.66-1.32,1.77-2.22,3.33-2.7,1.32-.48,2.64-.42,3.96.18,1.32.6,2.34,1.56,3.06,2.88,2.16,3.84,5.01,7.2,8.55,10.08,3.54,2.88,7.74,5.07,12.6,6.57,4.86,1.5,10.35,2.25,16.47,2.25,6.84,0,12.75-1.14,17.73-3.42,4.98-2.28,8.82-5.64,11.52-10.08,2.7-4.44,4.05-9.84,4.05-16.2,0-7.92-2.85-14.61-8.55-20.07-5.7-5.46-14.37-8.97-26.01-10.53-13.44-1.92-23.94-6.27-31.5-13.05-7.56-6.78-11.34-15.03-11.34-24.75,0-7.08,1.77-13.26,5.31-18.54,3.54-5.28,8.52-9.39,14.94-12.33,6.42-2.94,13.83-4.41,22.23-4.41,6.24,0,12,1.02,17.28,3.06,5.28,2.04,9.9,4.71,13.86,8.01,3.96,3.3,7.02,6.75,9.18,10.35.84,1.32,1.05,2.73.63,4.23-.42,1.5-1.41,2.55-2.97,3.15-1.32.48-2.64.51-3.96.09-1.32-.42-2.4-1.23-3.24-2.43-1.68-2.52-3.84-4.98-6.48-7.38-2.64-2.4-5.94-4.38-9.9-5.94-3.96-1.56-8.76-2.34-14.4-2.34-9.84,0-17.58,2.22-23.22,6.66-5.64,4.44-8.46,10.74-8.46,18.9,0,4.32,1.17,8.25,3.51,11.79,2.34,3.54,6.03,6.57,11.07,9.09,5.04,2.52,11.46,4.44,19.26,5.76,15.48,2.64,26.61,7.41,33.39,14.31,6.78,6.9,10.17,15.69,10.17,26.37,0,6.24-1.05,11.88-3.15,16.92-2.1,5.04-5.1,9.3-9,12.78-3.9,3.48-8.55,6.15-13.95,8.01-5.4,1.86-11.4,2.79-18,2.79Z"/><path class="cls-3" d="M569.46,196.59c-1.56,0-2.85-.51-3.87-1.53-1.02-1.02-1.53-2.31-1.53-3.87V61.41c0-1.56.51-2.85,1.53-3.87,1.02-1.02,2.31-1.53,3.87-1.53s2.85.51,3.87,1.53c1.02,1.02,1.53,2.31,1.53,3.87v129.78c0,1.56-.51,2.85-1.53,3.87-1.02,1.02-2.31,1.53-3.87,1.53Z"/><path class="cls-3" d="M616.26,196.59c-1.56,0-2.85-.51-3.87-1.53-1.02-1.02-1.53-2.31-1.53-3.87V61.41c0-1.56.51-2.85,1.53-3.87,1.02-1.02,2.31-1.53,3.87-1.53,1.68,0,3.06.6,4.14,1.8l91.44,118.98V61.41c0-1.56.51-2.85,1.53-3.87s2.31-1.53,3.87-1.53c1.44,0,2.7.51,3.78,1.53,1.08,1.02,1.62,2.31,1.62,3.87v129.78c0,1.56-.54,2.85-1.62,3.87-1.08,1.02-2.34,1.53-3.78,1.53-.84,0-1.59-.15-2.25-.45-.66-.3-1.23-.69-1.71-1.17l-91.62-119.16v115.38c0,1.56-.51,2.85-1.53,3.87-1.02,1.02-2.31,1.53-3.87,1.53Z"/></svg>