<?xml version="1.0" encoding="UTF-8"?>
<svg id="_图层_1" data-name=" 图层 1" xmlns="http://www.w3.org/2000/svg" viewBox="0 0 495.16 217.18">
  <defs>
    <style>
      .cls-1 {
        fill: #f8312f;
      }

      .cls-1, .cls-2, .cls-3, .cls-4, .cls-5, .cls-6, .cls-7 {
        stroke-width: 0px;
      }

      .cls-2 {
        fill: #ffb02e;
      }

      .cls-3 {
        fill: #f70a8d;
      }

      .cls-4 {
        fill: #3f5fff;
      }

      .cls-5 {
        fill: #402a32;
      }

      .cls-6 {
        fill: #333;
      }

      .cls-7 {
        fill: #fff;
      }
    </style>
  </defs>
  <path class="cls-6" d="M395.81,40.28c-1.32-1.32-2.94-1.98-4.86-1.98-2.76,0-4.86,1.2-6.3,3.6l-56.55,114.46-57.57-114.46c-1.32-2.4-3.42-3.6-6.3-3.6-1.92,0-3.57.66-4.95,1.98-1.38,1.32-2.07,3-2.07,5.04v126.54c0,1.92.69,3.57,2.07,4.95,1.38,1.38,3.03,2.07,4.95,2.07s3.57-.69,4.95-2.07c1.38-1.38,2.07-3.03,2.07-4.95v-100.26l49.86,99.72c1.32,2.88,3.48,4.32,6.48,4.32,2.76,0,4.8-1.14,6.12-3.42l50.04-102.28v62.93c.56,1.04.77,2.26.46,3.44.04.19.08.38.12.57.14.81.22,1.62.29,2.44.05.59.1,1.19.16,1.78.46.64.97,1.27,1.19,1.61.79,1.26,1.62,2.47,2.05,3.92.32,1.07.51,2.15.64,3.23.73,1.61,1.27,3.32,1.64,5.04,2.04,2.4,4.46,4.42,7.5,5.74V45.32c0-2.04-.66-3.72-1.98-5.04Z"/>
  <path class="cls-6" d="M439.72,182.01c-10.92,0-20.61-2.1-29.07-6.3s-15.06-10.02-19.8-17.46c-4.74-7.44-7.11-15.96-7.11-25.56V45.57c0-2.04.66-3.72,1.98-5.04,1.32-1.32,3-1.98,5.04-1.98s3.72.66,5.04,1.98c1.32,1.32,1.98,3,1.98,5.04v87.12c0,7.08,1.77,13.32,5.31,18.72,3.54,5.4,8.49,9.63,14.85,12.69,6.36,3.06,13.62,4.59,21.78,4.59s15.18-1.53,21.42-4.59c6.24-3.06,11.13-7.29,14.67-12.69,3.54-5.4,5.31-11.64,5.31-18.72V45.57c0-2.04.66-3.72,1.98-5.04,1.32-1.32,3-1.98,5.04-1.98,2.16,0,3.87.66,5.13,1.98,1.26,1.32,1.89,3,1.89,5.04v87.12c0,9.6-2.37,18.12-7.11,25.56-4.74,7.44-11.28,13.26-19.62,17.46-8.34,4.2-17.91,6.3-28.71,6.3Z"/>
  <path class="cls-2" d="M217.18,108.59c0,59.97-36.18,108.59-108.59,108.59S0,168.56,0,108.59c0-5.26.28-10.44.84-15.51l107.75-28.7,107.75,28.7c.56,5.06.84,10.24.84,15.51Z"/>
  <path class="cls-1" d="M216.34,93.08C210.55,40.46,174.64,0,108.59,0S6.63,40.46.84,93.08h215.5Z"/>
  <path class="cls-4" d="M197.8,15.51c-10.71,0-19.39,8.68-19.39,19.39v15.51c0,10.71,8.68,19.39,19.39,19.39s19.39-8.68,19.39-19.39v-15.51c0-10.71-8.68-19.39-19.39-19.39Z"/>
  <path class="cls-4" d="M27.15,139.62c-10.71,0-19.39,8.68-19.39,19.39v15.51c0,10.71,8.68,19.39,19.39,19.39s19.39-8.68,19.39-19.39v-15.51c0-10.71-8.68-19.39-19.39-19.39Z"/>
  <path class="cls-7" d="M86.99,76.88c-6.29,5.1-16.85,8.45-28.82,8.45-6.98,0-13.48-1.14-18.94-3.1-5.12,6.07-8.21,13.92-8.21,22.49,0,19.28,15.63,34.91,34.91,34.91s34.91-15.63,34.91-34.91c0-11.37-5.43-21.46-13.85-27.84Z"/>
  <path class="cls-7" d="M177.95,82.23c-5.45,1.96-11.96,3.1-18.94,3.1-11.97,0-22.53-3.35-28.82-8.45-8.41,6.37-13.85,16.47-13.85,27.84,0,19.28,15.63,34.91,34.91,34.91s34.91-15.63,34.91-34.91c0-8.57-3.09-16.42-8.21-22.49Z"/>
  <path class="cls-5" d="M85.33,50.42c0-2.14-1.74-3.88-3.88-3.88s-3.88,1.74-3.88,3.88c0,6.7-2.48,11.45-5.97,14.55-3.57,3.17-8.43,4.84-13.42,4.84-2.14,0-3.88,1.74-3.88,3.88s1.74,3.88,3.88,3.88c6.64,0,13.41-2.21,18.58-6.8,5.23-4.65,8.57-11.54,8.57-20.35Z"/>
  <path class="cls-5" d="M131.87,50.42c0-2.14,1.74-3.88,3.88-3.88s3.88,1.74,3.88,3.88c0,6.7,2.48,11.45,5.97,14.55,3.57,3.17,8.43,4.84,13.42,4.84,2.14,0,3.88,1.74,3.88,3.88s-1.74,3.88-3.88,3.88c-6.64,0-13.41-2.21-18.58-6.8-5.23-4.65-8.57-11.54-8.57-20.35Z"/>
  <path class="cls-5" d="M77.57,124.11c8.57,0,15.51-6.95,15.51-15.51s-6.95-15.51-15.51-15.51-15.51,6.95-15.51,15.51,6.95,15.51,15.51,15.51Z"/>
  <path class="cls-5" d="M139.62,124.11c8.57,0,15.51-6.95,15.51-15.51s-6.95-15.51-15.51-15.51-15.51,6.95-15.51,15.51,6.95,15.51,15.51,15.51Z"/>
  <path class="cls-5" d="M100.84,147.38c-12.85,0-23.27,10.42-23.27,23.27s10.42,23.27,23.27,23.27h15.51c12.85,0,23.27-10.42,23.27-23.27s-10.42-23.27-23.27-23.27h-15.51Z"/>
  <path class="cls-3" d="M81.28,181.45c-1.92-9.6,5.42-18.56,15.21-18.56h24.21c9.79,0,17.13,8.96,15.21,18.56l-.3,1.52c-2.18,10.88-11.73,18.71-22.82,18.71h-8.39c-11.09,0-20.64-7.83-22.82-18.71l-.3-1.52Z"/>
</svg>